<svg width="72" height="72" viewBox="0 0 72 72" fill="none" xmlns="http://www.w3.org/2000/svg">
<g opacity="0.14" filter="url(#filter0_d_3221_21876)">
<rect x="8" y="4" width="56" height="56" rx="4" fill="#FFFFFF"/>
</g>
<g clip-path="url(#clip0_3221_21876)">
<path d="M39.4572 31.7025V31.8555L39.5429 31.9823L46.2981 41.9846L46.675 41.7301L46.2981 41.9846C47.0321 43.0715 47.1057 44.4648 46.4903 45.623L46.9319 45.8576L46.4903 45.623C45.8749 46.7811 44.679 47.4999 43.3676 47.4999H28.6325C27.3211 47.4999 26.1251 46.7811 25.5098 45.623C24.8945 44.4648 24.9681 43.0715 25.7021 41.9846L32.4574 31.9823L32.543 31.8554V31.7024V24.8647V24.3647H32.0429H31.6188V23.4896H40.3815V24.3647H39.9573H39.4572V24.8647V31.7025ZM38.5821 24.8647V24.3647H38.0821H33.9181H33.4181V24.8647V32.1233L31.8248 34.4824L31.2981 35.2624H32.2392H39.761H40.7021L40.1754 34.4824L38.5821 32.1233V24.8647ZM26.4274 42.4744L26.4274 42.4744C25.8687 43.3017 25.8143 44.3308 26.2827 45.2123C26.7511 46.0939 27.6343 46.6248 28.6326 46.6248H43.3677C44.3659 46.6248 45.2492 46.0939 45.7176 45.2123C46.186 44.3308 46.1316 43.3017 45.573 42.4744L45.573 42.4744L41.442 36.3577L41.2933 36.1375H41.0276H30.9729H30.7072L30.5585 36.3577L26.4274 42.4744Z" stroke="#FFFFFF" stroke-width="1.00013"/>
<path d="M35.5626 43.1226H36.4377V43.9979H35.5626V43.1226Z" stroke="#FFFFFF" stroke-width="1.00013"/>
<path d="M39.1882 39.5942H41.0635V41.4696H39.1882V39.5942Z" fill="#FFFFFF"/>
<path d="M31.7109 38.469H33.5862V40.3444H31.7109V38.469Z" fill="#FFFFFF"/>
<path d="M34.7488 20.3914L36.309 21.4316L36.797 20.6997C37.3041 19.9391 37.3041 18.9563 36.797 18.1957C36.7112 18.067 36.7112 17.9008 36.797 17.7722L37.285 17.0403L35.7247 16L35.2367 16.7319C34.7297 17.4924 34.7297 18.4753 35.2367 19.2359C35.3224 19.3646 35.3224 19.5308 35.2367 19.6595L34.7488 20.3914Z" fill="#FFFFFF"/>
<path d="M38.3027 20.3914L39.863 21.4316L40.351 20.6997C40.8579 19.9391 40.8579 18.9563 40.351 18.1957C40.2652 18.067 40.2652 17.9008 40.3509 17.7721L40.8389 17.0402L39.2786 16L38.7907 16.7319C38.2837 17.4924 38.2837 18.4753 38.7906 19.2359C38.8764 19.3645 38.8764 19.5308 38.7907 19.6595L38.3027 20.3914Z" fill="#FFFFFF"/>
<path d="M31.1614 20.3914L32.7216 21.4316L33.2096 20.6997C33.7166 19.9391 33.7166 18.9563 33.2096 18.1957C33.1238 18.067 33.1238 17.9008 33.2096 17.7721L33.6975 17.0402L32.1372 16L31.6493 16.7319C31.1422 17.4924 31.1422 18.4753 31.6492 19.2359C31.735 19.3645 31.735 19.5308 31.6493 19.6595L31.1614 20.3914Z" fill="#FFFFFF"/>
</g>
<defs>
<filter id="filter0_d_3221_21876" x="0" y="0" width="72" height="72" filterUnits="userSpaceOnUse" color-interpolation-filters="sRGB">
<feFlood flood-opacity="0" result="BackgroundImageFix"/>
<feColorMatrix in="SourceAlpha" type="matrix" values="0 0 0 0 0 0 0 0 0 0 0 0 0 0 0 0 0 0 127 0" result="hardAlpha"/>
<feOffset dy="4"/>
<feGaussianBlur stdDeviation="4"/>
<feComposite in2="hardAlpha" operator="out"/>
<feColorMatrix type="matrix" values="0 0 0 0 1 0 0 0 0 1 0 0 0 0 1 0 0 0 0.24 0"/>
<feBlend mode="normal" in2="BackgroundImageFix" result="effect1_dropShadow_3221_21876"/>
<feBlend mode="normal" in="SourceGraphic" in2="effect1_dropShadow_3221_21876" result="shape"/>
</filter>
<clipPath id="clip0_3221_21876">
<rect width="32" height="32" fill="white" transform="translate(20 16)"/>
</clipPath>
</defs>
</svg>
