<svg width="290" height="167" viewBox="0 0 290 167" fill="none" xmlns="http://www.w3.org/2000/svg">
<ellipse cx="245.33" cy="64.6704" rx="101.67" ry="101.67" fill="#ECF5FF"/>
<path d="M331.5 58.5C331.5 117.571 281.156 165.5 219 165.5C156.844 165.5 106.5 117.571 106.5 58.5C106.5 -0.571251 156.844 -48.5 219 -48.5C281.156 -48.5 331.5 -0.571251 331.5 58.5Z" stroke="#0047AF"/>
<ellipse cx="101.67" cy="18.6705" rx="101.67" ry="101.67" fill="#D0E6FE"/>
<g clip-path="url(#clip0_207_4711)">
<path d="M220.215 75.759C215.602 71.8669 211.894 67.0137 209.353 61.5389C206.812 56.0641 205.497 50.1001 205.502 44.0642V26.8223C205.502 5.05962 189.337 -12.9554 168.396 -15.9733V-22.6524C168.396 -24.2926 167.745 -25.8656 166.585 -27.0254C165.425 -28.1852 163.852 -28.8367 162.212 -28.8367C160.572 -28.8367 158.999 -28.1852 157.839 -27.0254C156.679 -25.8656 156.028 -24.2926 156.028 -22.6524V-15.9733C135.081 -12.9554 118.922 5.05962 118.922 26.8223V44.0642C118.924 50.1123 117.603 56.0877 115.052 61.5714C112.501 67.0551 108.781 71.9144 104.153 75.8084C102.481 77.2502 101.289 79.1685 100.737 81.3065C100.185 83.4445 100.299 85.7002 101.065 87.7714C101.83 89.8426 103.21 91.6304 105.02 92.8955C106.83 94.1606 108.983 94.8426 111.191 94.85H213.233C219.201 94.85 224.055 89.9953 224.055 84.0274C224.055 80.861 222.676 77.8678 220.215 75.759ZM162.212 119.587C167.555 119.58 172.733 117.731 176.872 114.351C181.011 110.972 183.858 106.268 184.933 101.034H139.491C140.566 106.268 143.413 110.972 147.552 114.351C151.691 117.731 156.869 119.58 162.212 119.587Z" fill="#0047AF"/>
</g>
<path fill-rule="evenodd" clip-rule="evenodd" d="M159.345 94.85C156.385 85.315 154.791 75.1789 154.791 64.6705C154.791 35.476 167.096 9.15553 186.802 -9.38751C198.631 -1.66561 206.468 11.67 206.468 26.8223V44.0643C206.463 50.1001 207.777 56.0641 210.318 61.5389C212.86 67.0137 216.567 71.8669 221.18 75.759C223.642 77.8678 225.021 80.8611 225.021 84.0274C225.021 89.9953 220.166 94.85 214.198 94.85H159.345ZM170.19 118.493C166.757 113.003 163.834 107.161 161.487 101.034H185.899C184.823 106.268 181.976 110.972 177.837 114.351C175.555 116.215 172.957 117.613 170.19 118.493Z" fill="#02398A"/>
<defs>
<clipPath id="clip0_207_4711">
<rect width="148.424" height="148.424" fill="white" transform="translate(88 -28.8367)"/>
</clipPath>
</defs>
</svg>
