<svg width="18" height="18" viewBox="0 0 18 18" fill="none" xmlns="http://www.w3.org/2000/svg">
<g clip-path="url(#clip0_717_1007)">
<path d="M7.875 16.3125H3.375C2.44687 16.3125 1.6875 15.5531 1.6875 14.625V6.1875H15.1875V7.88625C15.1875 8.19563 15.4406 8.44875 15.75 8.44875C16.0594 8.44875 16.3125 8.19563 16.3125 7.88625V4.5C16.3125 2.9475 15.0525 1.6875 13.5 1.6875V1.125C13.5 0.815625 13.2469 0.5625 12.9375 0.5625C12.6281 0.5625 12.375 0.815625 12.375 1.125V1.6875H4.5V1.125C4.5 0.815625 4.24687 0.5625 3.9375 0.5625C3.62812 0.5625 3.375 0.815625 3.375 1.125V1.6875C1.8225 1.6875 0.5625 2.9475 0.5625 4.5V14.625C0.5625 16.1775 1.8225 17.4375 3.375 17.4375H7.875C8.18437 17.4375 8.4375 17.1844 8.4375 16.875C8.4375 16.5656 8.18437 16.3125 7.875 16.3125ZM3.375 2.8125V3.375C3.375 3.68438 3.62812 3.9375 3.9375 3.9375C4.24687 3.9375 4.5 3.68438 4.5 3.375V2.8125H12.375V3.375C12.375 3.68438 12.6281 3.9375 12.9375 3.9375C13.2469 3.9375 13.5 3.68438 13.5 3.375V2.8125C14.4281 2.8125 15.1875 3.57188 15.1875 4.5V5.0625H1.6875V4.5C1.6875 3.57188 2.44687 2.8125 3.375 2.8125ZM5.625 9.5625C5.625 9.87188 5.37187 10.125 5.0625 10.125C4.75312 10.125 4.5 9.87188 4.5 9.5625C4.5 9.25313 4.75312 9 5.0625 9C5.37187 9 5.625 9.25313 5.625 9.5625ZM9 9.5625C9 9.87188 8.74687 10.125 8.4375 10.125C8.12812 10.125 7.875 9.87188 7.875 9.5625C7.875 9.25313 8.12812 9 8.4375 9C8.74687 9 9 9.25313 9 9.5625ZM9 12.9375C9 13.2469 8.74687 13.5 8.4375 13.5C8.12812 13.5 7.875 13.2469 7.875 12.9375C7.875 12.6281 8.12812 12.375 8.4375 12.375C8.74687 12.375 9 12.6281 9 12.9375ZM5.625 12.9375C5.625 13.2469 5.37187 13.5 5.0625 13.5C4.75312 13.5 4.5 13.2469 4.5 12.9375C4.5 12.6281 4.75312 12.375 5.0625 12.375C5.37187 12.375 5.625 12.6281 5.625 12.9375ZM16.9481 14.9738L16.6781 14.7038C16.605 14.6306 16.515 14.4225 16.515 14.3156V12.015C16.515 10.5469 15.4575 9.32063 14.0625 9.05625V8.4375C14.0625 8.12813 13.8094 7.875 13.5 7.875C13.1906 7.875 12.9375 8.12813 12.9375 8.4375V9.05625C11.5425 9.32063 10.485 10.5469 10.485 12.015V14.3156C10.485 14.4225 10.4006 14.6306 10.3275 14.7038L10.0575 14.9738C9.77062 15.255 9.56812 15.7556 9.56812 16.155V16.3125C9.56812 16.6219 9.82125 16.875 10.1306 16.875H12.9431C12.9431 17.1844 13.1962 17.4375 13.5056 17.4375C13.815 17.4375 14.0681 17.1844 14.0681 16.875H16.8806C17.19 16.875 17.4431 16.6219 17.4431 16.3125V16.1606C17.4375 15.7556 17.2294 15.2606 16.9481 14.9738ZM10.8675 15.75L11.115 15.5025C11.3962 15.2213 11.6044 14.7206 11.6044 14.3213V12.0206C11.6044 10.98 12.4537 10.1306 13.4944 10.1306C14.535 10.1306 15.3844 10.98 15.3844 12.0206V14.3213C15.3844 14.7206 15.5925 15.2213 15.8737 15.5025L16.1325 15.75H10.8675Z" fill="#0047AF"/>
</g>
<defs>
<clipPath id="clip0_717_1007">
<rect width="18" height="18" fill="white"/>
</clipPath>
</defs>
</svg>
