<svg width="24" height="24" viewBox="0 0 24 24" fill="none" xmlns="http://www.w3.org/2000/svg">
<path d="M12 8.24997V6.74997M12 8.24997C10.645 8.24997 9.303 8.30597 7.976 8.41597C6.845 8.50997 6 9.47297 6 10.608V13.121C7.966 12.876 9.968 12.75 12 12.75C14.0057 12.7494 16.0096 12.8733 18 13.121M12 8.24997C13.355 8.24997 14.697 8.30597 16.024 8.41597C17.155 8.50997 18 9.47297 18 10.608V13.121M18 13.121C18.39 13.17 18.777 13.223 19.163 13.281C20.233 13.441 21 14.375 21 15.456V20.625C21 21.246 20.496 21.75 19.875 21.75H4.125C3.82663 21.75 3.54048 21.6314 3.3295 21.4205C3.11853 21.2095 3 20.9233 3 20.625V15.455C3 14.375 3.768 13.441 4.837 13.281C5.22399 13.2225 5.61169 13.1689 6 13.12M15 8.24997V6.74997M9 8.24997V6.74997M21 16.5L19.5 17.25C19.0343 17.4828 18.5207 17.6041 18 17.6041C17.4793 17.6041 16.9657 17.4828 16.5 17.25C16.0343 17.0171 15.5207 16.8959 15 16.8959C14.4793 16.8959 13.9657 17.0171 13.5 17.25C13.0343 17.4828 12.5207 17.6041 12 17.6041C11.4793 17.6041 10.9657 17.4828 10.5 17.25C10.0343 17.0171 9.52071 16.8959 9 16.8959C8.47929 16.8959 7.96573 17.0171 7.5 17.25C7.03427 17.4828 6.52071 17.6041 6 17.6041C5.47929 17.6041 4.96573 17.4828 4.5 17.25L3 16.5M12.265 3.10997C12.3175 3.1624 12.3533 3.22921 12.3678 3.30197C12.3823 3.37473 12.3749 3.45015 12.3465 3.5187C12.3181 3.58725 12.2701 3.64584 12.2084 3.68707C12.1467 3.7283 12.0742 3.7503 12 3.7503C11.9258 3.7503 11.8533 3.7283 11.7916 3.68707C11.7299 3.64584 11.6819 3.58725 11.6535 3.5187C11.6251 3.45015 11.6177 3.37473 11.6322 3.30197C11.6467 3.22921 11.6825 3.1624 11.735 3.10997L12 2.84497L12.265 3.10997ZM9.265 3.10997C9.31749 3.1624 9.35325 3.22921 9.36776 3.30197C9.38227 3.37473 9.37487 3.45015 9.3465 3.5187C9.31813 3.58725 9.27007 3.64584 9.20839 3.68707C9.14671 3.7283 9.07419 3.7503 9 3.7503C8.92581 3.7503 8.85329 3.7283 8.79161 3.68707C8.72993 3.64584 8.68187 3.58725 8.6535 3.5187C8.62513 3.45015 8.61773 3.37473 8.63224 3.30197C8.64675 3.22921 8.68251 3.1624 8.735 3.10997L9 2.84497L9.265 3.10997ZM15.265 3.10997C15.3175 3.1624 15.3533 3.22921 15.3678 3.30197C15.3823 3.37473 15.3749 3.45015 15.3465 3.5187C15.3181 3.58725 15.2701 3.64584 15.2084 3.68707C15.1467 3.7283 15.0742 3.7503 15 3.7503C14.9258 3.7503 14.8533 3.7283 14.7916 3.68707C14.7299 3.64584 14.6819 3.58725 14.6535 3.5187C14.6251 3.45015 14.6177 3.37473 14.6322 3.30197C14.6467 3.22921 14.6825 3.1624 14.735 3.10997L15 2.84497L15.265 3.10997Z" stroke="#8C8C8C" stroke-width="1.5" stroke-linecap="round" stroke-linejoin="round"/>
</svg>
