<svg width="24" height="24" viewBox="0 0 24 24" fill="none" xmlns="http://www.w3.org/2000/svg">
<path d="M16.5 12.0001C16.5 13.1935 16.0259 14.3381 15.182 15.182C14.3381 16.026 13.1935 16.5001 12 16.5001C10.8065 16.5001 9.66194 16.026 8.81802 15.182C7.97411 14.3381 7.5 13.1935 7.5 12.0001C7.5 10.8066 7.97411 9.66199 8.81802 8.81808C9.66194 7.97416 10.8065 7.50006 12 7.50006C13.1935 7.50006 14.3381 7.97416 15.182 8.81808C16.0259 9.66199 16.5 10.8066 16.5 12.0001ZM16.5 12.0001C16.5 13.6571 17.507 15.0001 18.75 15.0001C19.993 15.0001 21 13.6571 21 12.0001C21 9.91786 20.278 7.90009 18.957 6.29054C17.6361 4.68099 15.7979 3.57925 13.7557 3.17305C11.7136 2.76685 9.5937 3.08132 7.75737 4.06288C5.92104 5.04443 4.48187 6.63234 3.68506 8.55605C2.88825 10.4798 2.78311 12.6202 3.38756 14.6128C3.992 16.6053 5.26863 18.3266 6.99992 19.4834C8.73121 20.6402 10.81 21.1609 12.8822 20.9568C14.9544 20.7527 16.8917 19.8364 18.364 18.3641M16.5 12.0001V8.25006" stroke="#8C8C8C" stroke-width="1.5" stroke-linecap="round" stroke-linejoin="round"/>
</svg>
