<svg width="20" height="20" viewBox="0 0 20 20" fill="none" xmlns="http://www.w3.org/2000/svg">
<g clip-path="url(#clip0_100_1628)">
<path d="M10 20C15.5228 20 20 15.5228 20 10C20 4.47715 15.5228 0 10 0C4.47715 0 0 4.47715 0 10C0 15.5228 4.47715 20 10 20Z" fill="#012169"/>
<path d="M17.7053 3.62744L9.99998 8.25078L2.29465 3.62744C1.65378 4.4024 1.13369 5.26975 0.751984 6.20011L7.08532 10.0001L0.751984 13.8001C1.1334 14.7307 1.65327 15.5983 2.29398 16.3734L9.99998 11.7494L17.706 16.3728C18.3467 15.5976 18.8666 14.73 19.248 13.7994L12.9146 9.99944L19.248 6.19944C18.8662 5.26931 18.3461 4.4022 17.7053 3.62744Z" fill="white"/>
<path d="M1.992 15.9714L10.9713 10.5834L18.566 15.14C18.7382 14.8537 18.896 14.5588 19.0387 14.2567L10.972 9.41669L18.566 4.86069C18.3931 4.57358 18.2071 4.29624 18.008 4.02869L9.028 9.41669L1.43333 4.86069C1.26222 5.14602 1.10489 5.44024 0.961334 5.74335L9.028 10.5834L1.43333 15.14C1.60555 15.4263 1.79201 15.7037 1.992 15.9714Z" fill="#C8102E"/>
<path d="M12.5 0.328004C10.862 -0.109335 9.13798 -0.109335 7.5 0.328004V7.5H0.328004C-0.109335 9.13798 -0.109335 10.862 0.328004 12.5H7.5V19.672C9.13798 20.1093 10.862 20.1093 12.5 19.672V12.5H19.672C20.1093 10.862 20.1093 9.13798 19.672 7.5H12.5V0.328004Z" fill="white"/>
<path d="M11.5 0.124667C11.0038 0.0455676 10.5024 0.00389452 10 0C9.49758 0.00389452 8.99617 0.0455676 8.5 0.124667V8.5H0.124667C0.0455676 8.99617 0.00389452 9.49758 0 10C0.00389452 10.5024 0.0455676 11.0038 0.124667 11.5H8.5V19.8753C8.99617 19.9544 9.49758 19.9961 10 20C10.5024 19.9961 11.0038 19.9544 11.5 19.8753V11.5H19.8753C19.9544 11.0038 19.9961 10.5024 20 10C19.9961 9.49758 19.9544 8.99617 19.8753 8.5H11.5V0.124667Z" fill="#C8102E"/>
</g>
<defs>
<clipPath id="clip0_100_1628">
<rect width="20" height="20" fill="white"/>
</clipPath>
</defs>
</svg>
