<svg width="81" height="80" viewBox="0 0 81 80" fill="none" xmlns="http://www.w3.org/2000/svg">
<path d="M40.5 73.3334C35.8889 73.3334 31.5555 72.4584 27.5 70.7084C23.4444 68.9584 19.9166 66.5834 16.9166 63.5834C13.9166 60.5834 11.5416 57.0556 9.79163 53C8.04163 48.9445 7.16663 44.6111 7.16663 40C7.16663 35.3889 8.04163 31.0556 9.79163 27C11.5416 22.9445 13.9166 19.4167 16.9166 16.4167C19.9166 13.4167 23.4444 11.0417 27.5 9.29169C31.5555 7.54169 35.8889 6.66669 40.5 6.66669C43.1666 6.66669 45.7639 6.97224 48.2916 7.58335C50.8194 8.19447 53.25 9.08335 55.5833 10.25C56.4166 10.6945 56.9583 11.3611 57.2083 12.25C57.4583 13.1389 57.3055 13.9722 56.75 14.75C56.1944 15.5278 55.4583 16.0278 54.5416 16.25C53.625 16.4722 52.7222 16.3611 51.8333 15.9167C50.0555 15.0834 48.2083 14.4445 46.2916 14C44.375 13.5556 42.4444 13.3334 40.5 13.3334C33.1111 13.3334 26.8194 15.9306 21.625 21.125C16.4305 26.3195 13.8333 32.6111 13.8333 40C13.8333 47.3889 16.4305 53.6806 21.625 58.875C26.8194 64.0695 33.1111 66.6667 40.5 66.6667C47.8889 66.6667 54.1805 64.0695 59.375 58.875C64.5694 53.6806 67.1666 47.3889 67.1666 40C67.1666 39.5556 67.1527 39.125 67.125 38.7084C67.0972 38.2917 67.0555 37.8611 67 37.4167C66.8889 36.4722 67.0694 35.5695 67.5416 34.7084C68.0139 33.8472 68.7222 33.2778 69.6666 33C70.5555 32.7222 71.3889 32.8056 72.1666 33.25C72.9444 33.6945 73.3889 34.3611 73.5 35.25C73.6111 36.0278 73.6944 36.8056 73.75 37.5834C73.8055 38.3611 73.8333 39.1667 73.8333 40C73.8333 44.6111 72.9583 48.9445 71.2083 53C69.4583 57.0556 67.0833 60.5834 64.0833 63.5834C61.0833 66.5834 57.5555 68.9584 53.5 70.7084C49.4444 72.4584 45.1111 73.3334 40.5 73.3334ZM35.8333 46L66.8333 14.9167C67.4444 14.3056 68.2083 13.9861 69.125 13.9584C70.0416 13.9306 70.8333 14.25 71.5 14.9167C72.1111 15.5278 72.4166 16.3056 72.4166 17.25C72.4166 18.1945 72.1111 18.9722 71.5 19.5834L38.1666 53C37.5 53.6667 36.7222 54 35.8333 54C34.9444 54 34.1666 53.6667 33.5 53L24 43.5C23.3888 42.8889 23.0833 42.1111 23.0833 41.1667C23.0833 40.2222 23.3888 39.4445 24 38.8334C24.6111 38.2222 25.3889 37.9167 26.3333 37.9167C27.2777 37.9167 28.0555 38.2222 28.6666 38.8334L35.8333 46Z" fill="#27AE60"/>
</svg>
