<svg width="290" height="52" viewBox="0 0 290 52" fill="none" xmlns="http://www.w3.org/2000/svg">
<ellipse cx="245.33" cy="-50.3296" rx="101.67" ry="101.67" fill="#ECF5FF"/>
<path d="M331.5 -56.5C331.5 2.57124 281.156 50.5 219 50.5C156.844 50.5 106.5 2.57124 106.5 -56.5C106.5 -115.571 156.844 -163.5 219 -163.5C281.156 -163.5 331.5 -115.571 331.5 -56.5Z" stroke="#0047AF"/>
<ellipse cx="101.67" cy="-96.3295" rx="101.67" ry="101.67" fill="#D0E6FE"/>
<g clip-path="url(#clip0_207_4759)">
<path d="M220.215 -39.241C215.602 -43.1331 211.894 -47.9863 209.353 -53.4611C206.812 -58.9359 205.497 -64.8999 205.502 -70.9358V-88.1777C205.502 -109.94 189.337 -127.955 168.396 -130.973V-137.652C168.396 -139.293 167.745 -140.866 166.585 -142.025C165.425 -143.185 163.852 -143.837 162.212 -143.837C160.572 -143.837 158.999 -143.185 157.839 -142.025C156.679 -140.866 156.028 -139.293 156.028 -137.652V-130.973C135.081 -127.955 118.922 -109.94 118.922 -88.1777V-70.9358C118.924 -64.8877 117.603 -58.9123 115.052 -53.4286C112.501 -47.9449 108.781 -43.0856 104.154 -39.1916C102.481 -37.7498 101.289 -35.8315 100.737 -33.6935C100.185 -31.5555 100.299 -29.2998 101.065 -27.2286C101.83 -25.1574 103.21 -23.3696 105.02 -22.1045C106.83 -20.8394 108.983 -20.1574 111.191 -20.15H213.233C219.201 -20.15 224.055 -25.0047 224.055 -30.9726C224.055 -34.139 222.676 -37.1322 220.215 -39.241ZM162.212 4.58736C167.555 4.58006 172.733 2.73076 176.872 -0.648834C181.011 -4.02841 183.858 -8.73161 184.933 -13.9657H139.491C140.566 -8.73161 143.413 -4.02841 147.552 -0.648834C151.691 2.73076 156.869 4.58006 162.212 4.58736Z" fill="#0047AF"/>
</g>
<path fill-rule="evenodd" clip-rule="evenodd" d="M159.345 -20.15C156.385 -29.685 154.791 -39.8211 154.791 -50.3295C154.791 -79.524 167.096 -105.844 186.802 -124.388C198.631 -116.666 206.468 -103.33 206.468 -88.1777V-70.9357C206.463 -64.8999 207.777 -58.9359 210.318 -53.4611C212.86 -47.9863 216.567 -43.1331 221.18 -39.241C223.641 -37.1322 225.021 -34.1389 225.021 -30.9726C225.021 -25.0047 220.166 -20.15 214.198 -20.15H159.345ZM170.19 3.49347C166.757 -1.99704 163.834 -7.83881 161.487 -13.9656H185.898C184.823 -8.7316 181.976 -4.0284 177.837 -0.648804C175.555 1.21458 172.957 2.61275 170.19 3.49347Z" fill="#02398A"/>
<defs>
<clipPath id="clip0_207_4759">
<rect width="148.424" height="148.424" fill="white" transform="translate(88 -143.837)"/>
</clipPath>
</defs>
</svg>
