<svg width="20" height="20" viewBox="0 0 20 20" fill="none" xmlns="http://www.w3.org/2000/svg">
<g clip-path="url(#clip0_100_1646)">
<path d="M0 4.50781H20V15.4949H0V4.50781Z" fill="white"/>
<path d="M0 13.4175V16.3177C0.00071925 17.2948 0.38919 18.2317 1.0801 18.9226C1.77102 19.6135 2.7079 20.002 3.685 20.0027H16.3177C17.2948 20.002 18.2317 19.6135 18.9226 18.9226C19.6135 18.2317 20.002 17.2948 20.0027 16.3177V13.4175H0Z" fill="#00A504"/>
<path d="M16.3177 0H3.685C2.7079 0.00071925 1.77102 0.38919 1.0801 1.0801C0.38919 1.77102 0.00071925 2.7079 0 3.685L0 6.65037H20.0027V3.685C20.002 2.7079 19.6135 1.77102 18.9226 1.0801C18.2317 0.38919 17.2948 0.00071925 16.3177 0Z" fill="#FF8B22"/>
<path d="M10.0014 12.8038C9.45665 12.8038 8.92417 12.6422 8.47129 12.3395C8.01841 12.0368 7.66548 11.6066 7.45715 11.1033C7.24882 10.6 7.19444 10.0462 7.30091 9.512C7.40738 8.97779 7.6699 8.48716 8.05527 8.10217C8.44063 7.71719 8.93152 7.45515 9.46584 7.34921C10.0002 7.24327 10.5539 7.29819 11.057 7.50702C11.5601 7.71584 11.99 8.0692 12.2922 8.52237C12.5944 8.97555 12.7555 9.50819 12.7549 10.0529C12.7542 10.7827 12.4638 11.4824 11.9475 11.9982C11.4312 12.514 10.7312 12.8038 10.0014 12.8038ZM10.0014 8.00539C9.59629 8.00485 9.20016 8.12448 8.86309 8.34914C8.52602 8.5738 8.26316 8.89339 8.10777 9.26748C7.95238 9.64156 7.91144 10.0533 7.99014 10.4507C8.06884 10.8481 8.26363 11.2131 8.54987 11.4998C8.83612 11.7864 9.20095 11.9817 9.5982 12.0609C9.99545 12.1401 10.4073 12.0997 10.7816 11.9448C11.1559 11.7899 11.4758 11.5275 11.7009 11.1907C11.926 10.854 12.0462 10.458 12.0462 10.0529C12.0462 9.51035 11.8308 8.98996 11.4474 8.60605C11.064 8.22215 10.5439 8.00611 10.0014 8.00539Z" fill="#0063BC"/>
<path d="M10.0013 12.4263C9.92933 12.4263 9.86026 12.3977 9.80933 12.3467C9.7584 12.2958 9.72979 12.2267 9.72979 12.1547V10.7155L8.72776 11.7175C8.70261 11.7432 8.67262 11.7636 8.63952 11.7776C8.60642 11.7916 8.57088 11.7988 8.53495 11.799C8.49857 11.7992 8.46251 11.7921 8.42892 11.7781C8.39534 11.7641 8.3649 11.7435 8.33943 11.7175C8.31398 11.6923 8.29378 11.6622 8.27999 11.6292C8.26621 11.5961 8.25911 11.5606 8.25911 11.5247C8.25911 11.4889 8.26621 11.4534 8.27999 11.4203C8.29378 11.3872 8.31398 11.3572 8.33943 11.3319L9.34419 10.3272H7.90495C7.83293 10.3272 7.76386 10.2986 7.71293 10.2476C7.662 10.1967 7.63339 10.1276 7.63339 10.0556C7.63339 9.98359 7.662 9.91452 7.71293 9.86359C7.76386 9.81266 7.83293 9.78405 7.90495 9.78405H9.34419L8.33943 8.78202C8.29999 8.74404 8.27295 8.69502 8.26186 8.6414C8.25077 8.58778 8.25615 8.53206 8.2773 8.48155C8.29844 8.43104 8.33436 8.3881 8.38034 8.35837C8.42632 8.32864 8.48022 8.3135 8.53495 8.31494C8.57069 8.31474 8.60612 8.32159 8.6392 8.3351C8.67229 8.34861 8.70238 8.36853 8.72776 8.39369L9.72979 9.39573V7.95649C9.72979 7.88447 9.7584 7.8154 9.80933 7.76447C9.86026 7.71355 9.92933 7.68494 10.0013 7.68494C10.0734 7.68494 10.1424 7.71355 10.1934 7.76447C10.2443 7.8154 10.2729 7.88447 10.2729 7.95649V9.39573L11.2749 8.39369C11.3003 8.36853 11.3304 8.34861 11.3635 8.3351C11.3966 8.32159 11.432 8.31474 11.4677 8.31494C11.5219 8.31408 11.5751 8.32944 11.6205 8.35905C11.6658 8.38865 11.7013 8.43115 11.7223 8.48108C11.7434 8.53102 11.749 8.58609 11.7384 8.63924C11.7279 8.69238 11.7017 8.74116 11.6633 8.7793L10.6585 9.78405H12.0978C12.1698 9.78405 12.2388 9.81266 12.2898 9.86359C12.3407 9.91452 12.3693 9.98359 12.3693 10.0556C12.3693 10.1276 12.3407 10.1967 12.2898 10.2476C12.2388 10.2986 12.1698 10.3272 12.0978 10.3272H10.6585L11.6633 11.3319C11.6887 11.3572 11.7089 11.3872 11.7227 11.4203C11.7365 11.4534 11.7436 11.4889 11.7436 11.5247C11.7436 11.5606 11.7365 11.5961 11.7227 11.6292C11.7089 11.6622 11.6887 11.6923 11.6633 11.7175C11.6378 11.7435 11.6074 11.7641 11.5738 11.7781C11.5402 11.7921 11.5041 11.7992 11.4677 11.799C11.4318 11.7988 11.3963 11.7916 11.3632 11.7776C11.3301 11.7636 11.3001 11.7432 11.2749 11.7175L10.2729 10.7155V12.1547C10.2729 12.2267 10.2443 12.2958 10.1934 12.3467C10.1424 12.3977 10.0734 12.4263 10.0013 12.4263Z" fill="#0063BC"/>
</g>
<defs>
<clipPath id="clip0_100_1646">
<rect width="20" height="20" fill="white"/>
</clipPath>
</defs>
</svg>
