<svg width="100" height="100" viewBox="0 0 100 100" fill="none" xmlns="http://www.w3.org/2000/svg">
<rect width="100" height="100" rx="50" fill="#ECF5FF"/>
<path d="M68.75 47.6707C67.5999 47.6707 66.6668 46.7377 66.6668 45.5875C66.6668 39.7437 64.3917 34.2521 60.2604 30.1186C59.4459 29.3041 59.4459 27.9877 60.2604 27.1729C61.0748 26.3584 62.3917 26.3584 63.2061 27.1729C68.1252 32.0915 70.8332 38.6314 70.8332 45.5875C70.8332 46.7377 69.9001 47.6707 68.75 47.6707ZM27.0832 47.6707C25.9335 47.6707 25 46.7377 25 45.5875C25 38.6314 27.7084 32.0915 32.6271 27.1729C33.4416 26.3584 34.7584 26.3584 35.5729 27.1729C36.3876 27.9877 36.3876 29.3041 35.5729 30.1186C31.4414 34.25 29.1668 39.7438 29.1668 45.5875C29.1668 46.7377 28.2333 47.6707 27.0832 47.6707ZM67.4564 60.2356C64.3063 57.5728 62.5 53.6812 62.5 49.5582V43.75C62.5 36.4189 57.0541 30.3501 50 29.3335V27.0832C50 25.9312 49.0665 25 47.9168 25C46.7667 25 45.8332 25.9312 45.8332 27.0832V29.3335C38.7771 30.3501 33.3332 36.4189 33.3332 43.75V49.5583C33.3332 53.6812 31.527 57.5729 28.3585 60.252C27.9584 60.5938 27.6371 61.0183 27.4169 61.4963C27.1968 61.9744 27.0829 62.4944 27.0832 63.0207C27.0832 65.0314 28.7186 66.6668 30.7293 66.6668H65.1043C67.1146 66.6668 68.75 65.0314 68.75 63.0207C68.75 61.9541 68.2854 60.946 67.4564 60.2356ZM47.9168 75C51.6896 75 54.8458 72.3103 55.571 68.75H40.2626C40.9874 72.3103 44.1437 75 47.9168 75Z" fill="#0047AF"/>
</svg>
