<svg width="24" height="24" viewBox="0 0 24 24" fill="none" xmlns="http://www.w3.org/2000/svg">
<path d="M15.1749 17.6477C17.2455 17.4025 19.2799 16.9139 21.2359 16.1919C19.5794 14.3569 18.6641 11.9718 18.6677 9.49971V8.66625C18.6677 6.89786 17.9652 5.2019 16.7148 3.95146C15.4643 2.70102 13.7684 1.99854 12 1.99854C10.2316 1.99854 8.53565 2.70102 7.28521 3.95146C6.03478 5.2019 5.33229 6.89786 5.33229 8.66625V9.49971C5.33564 11.9719 4.41991 14.3571 2.763 16.1919C4.68885 16.9031 6.71917 17.3976 8.82506 17.6477M15.1749 17.6477C13.0657 17.8978 10.9343 17.8978 8.82506 17.6477M15.1749 17.6477C15.3351 18.1476 15.3749 18.6783 15.2912 19.1965C15.2074 19.7147 15.0025 20.2058 14.6931 20.6299C14.3836 21.0539 13.9784 21.3989 13.5104 21.6367C13.0425 21.8746 12.5249 21.9985 12 21.9985C11.4751 21.9985 10.9575 21.8746 10.4895 21.6367C10.0216 21.3989 9.61637 21.0539 9.30693 20.6299C8.9975 20.2058 8.79257 19.7147 8.70883 19.1965C8.62509 18.6783 8.66492 18.1476 8.82506 17.6477M2.13623 6.99932C2.44958 5.13788 3.28507 3.40369 4.5455 1.99854M19.4545 1.99854C20.7149 3.40369 21.5504 5.13788 21.8638 6.99932" stroke="#ECF5FF" stroke-width="1.5" stroke-linecap="round" stroke-linejoin="round"/>
</svg>
