<svg width="25" height="24" viewBox="0 0 25 24" fill="none" xmlns="http://www.w3.org/2000/svg">
<g clip-path="url(#clip0_703_1555)">
<path d="M15.8335 19.92C16.7813 20.1952 17.7633 20.3343 18.7502 20.3333C20.3373 20.3356 21.9038 19.9737 23.3291 19.2755C23.3712 18.2797 23.0876 17.2972 22.5211 16.477C21.9546 15.6569 21.1362 15.0437 20.1899 14.7306C19.2436 14.4174 18.221 14.4212 17.2771 14.7415C16.3331 15.0618 15.5194 15.6811 14.9591 16.5055M15.8335 19.92V19.9167C15.8335 18.68 15.5158 17.5167 14.9591 16.5055M15.8335 19.92V20.0378C13.6952 21.3256 11.2453 22.0042 8.7491 22C6.1591 22 3.73577 21.2833 1.66688 20.0378L1.66577 19.9167C1.66492 18.3438 2.18756 16.8155 3.15131 15.5725C4.11505 14.3295 5.46507 13.4427 6.98853 13.0518C8.51199 12.6608 10.1222 12.7881 11.5654 13.4134C13.0085 14.0388 14.2025 15.1266 14.9591 16.5055M12.5002 5.75C12.5002 6.74456 12.1051 7.69838 11.4019 8.40164C10.6986 9.10491 9.74477 9.49999 8.75021 9.49999C7.75565 9.49999 6.80182 9.10491 6.09856 8.40164C5.3953 7.69838 5.00021 6.74456 5.00021 5.75C5.00021 4.75544 5.3953 3.80161 6.09856 3.09835C6.80182 2.39509 7.75565 2 8.75021 2C9.74477 2 10.6986 2.39509 11.4019 3.09835C12.1051 3.80161 12.5002 4.75544 12.5002 5.75ZM21.6669 8.24999C21.6669 9.02354 21.3596 9.76541 20.8126 10.3124C20.2656 10.8594 19.5237 11.1667 18.7502 11.1667C17.9767 11.1667 17.2348 10.8594 16.6878 10.3124C16.1408 9.76541 15.8335 9.02354 15.8335 8.24999C15.8335 7.47645 16.1408 6.73458 16.6878 6.1876C17.2348 5.64062 17.9767 5.33333 18.7502 5.33333C19.5237 5.33333 20.2656 5.64062 20.8126 6.1876C21.3596 6.73458 21.6669 7.47645 21.6669 8.24999Z" stroke="#ECF5FF" stroke-width="1.5" stroke-linecap="round" stroke-linejoin="round"/>
</g>
<defs>
<clipPath id="clip0_703_1555">
<rect width="24" height="24" fill="white" transform="translate(0.5)"/>
</clipPath>
</defs>
</svg>
