<svg width="24" height="24" viewBox="0 0 24 24" fill="none" xmlns="http://www.w3.org/2000/svg">
<path d="M12.7566 3.73143C12.7566 3.53219 12.8357 3.34111 12.9766 3.20023C13.1175 3.05935 13.3086 2.9802 13.5078 2.9802C15.4995 2.98239 17.409 3.77456 18.8173 5.1829C20.2257 6.59124 21.0178 8.50074 21.02 10.4924C21.02 10.6917 20.9409 10.8828 20.8 11.0236C20.6591 11.1645 20.468 11.2437 20.2688 11.2437C20.0696 11.2437 19.8785 11.1645 19.7376 11.0236C19.5967 10.8828 19.5176 10.6917 19.5176 10.4924C19.5158 8.89909 18.882 7.37152 17.7554 6.24485C16.6287 5.11819 15.1011 4.48444 13.5078 4.48265C13.3086 4.48265 13.1175 4.4035 12.9766 4.26262C12.8357 4.12174 12.7566 3.93066 12.7566 3.73143ZM13.5078 7.48754C14.3047 7.48754 15.069 7.80413 15.6326 8.36766C16.1961 8.93118 16.5127 9.69549 16.5127 10.4924C16.5127 10.6917 16.5918 10.8828 16.7327 11.0236C16.8736 11.1645 17.0647 11.2437 17.2639 11.2437C17.4631 11.2437 17.6542 11.1645 17.7951 11.0236C17.936 10.8828 18.0151 10.6917 18.0151 10.4924C18.0139 9.29738 17.5387 8.15162 16.6936 7.30658C15.8486 6.46155 14.7028 5.98629 13.5078 5.9851C13.3086 5.9851 13.1175 6.06424 12.9766 6.20512C12.8357 6.34601 12.7566 6.53708 12.7566 6.73632C12.7566 6.93556 12.8357 7.12663 12.9766 7.26751C13.1175 7.4084 13.3086 7.48754 13.5078 7.48754ZM20.3387 15.5549C20.774 15.9915 21.0185 16.5828 21.0185 17.1994C21.0185 17.8159 20.774 18.4072 20.3387 18.8438L19.655 19.6318C13.5025 25.5222 -1.46935 10.554 4.33009 4.38199L5.194 3.63076C5.63104 3.20758 6.21712 2.97348 6.82544 2.9791C7.43376 2.98473 8.0154 3.22962 8.44454 3.66081C8.46783 3.6841 9.85985 5.49229 9.85985 5.49229C10.2729 5.92622 10.5028 6.50264 10.5018 7.10172C10.5009 7.7008 10.2691 8.27646 9.85459 8.70903L8.98467 9.80281C9.46609 10.9726 10.1739 12.0356 11.0674 12.931C11.961 13.8263 13.0226 14.5363 14.1914 15.0201L15.2919 14.1449C15.7246 13.7307 16.3001 13.4992 16.899 13.4984C17.4979 13.4975 18.0741 13.7275 18.5079 14.1404C18.5079 14.1404 20.3154 15.5316 20.3387 15.5549ZM19.305 16.6472C19.305 16.6472 17.5073 15.2642 17.484 15.2409C17.3292 15.0875 17.1201 15.0014 16.9022 15.0014C16.6842 15.0014 16.4751 15.0875 16.3204 15.2409C16.3001 15.262 14.7849 16.4692 14.7849 16.4692C14.6828 16.5504 14.5612 16.6037 14.4323 16.6237C14.3033 16.6438 14.1714 16.6298 14.0494 16.5834C12.5353 16.0196 11.16 15.1371 10.0167 13.9954C8.87344 12.8538 7.98885 11.4799 7.42288 9.96658C7.3727 9.84297 7.35634 9.70823 7.37548 9.5762C7.39463 9.44417 7.44858 9.31962 7.53181 9.21536C7.53181 9.21536 8.73902 7.69939 8.75931 7.67986C8.91276 7.52509 8.99886 7.31598 8.99886 7.09803C8.99886 6.88009 8.91276 6.67097 8.75931 6.51621C8.73602 6.49367 7.35302 4.6945 7.35302 4.6945C7.19594 4.55365 6.99093 4.47821 6.78002 4.48366C6.56911 4.48911 6.36827 4.57502 6.21867 4.72379L5.35476 5.47502C1.11636 10.5713 14.0907 22.826 18.5568 18.6056L19.2411 17.8169C19.4015 17.6683 19.4978 17.4632 19.5097 17.245C19.5217 17.0267 19.4482 16.8123 19.305 16.6472Z" fill="#8C8C8C" stroke="white" stroke-width="0.2"/>
</svg>
