<svg width="24" height="24" viewBox="0 0 24 24" fill="none" xmlns="http://www.w3.org/2000/svg">
<path d="M18.6468 19.4723C17.8704 18.4444 16.8659 17.6107 15.7125 17.0371C14.559 16.4635 13.2882 16.1655 12 16.1667C10.7118 16.1655 9.44092 16.4635 8.2875 17.0371C7.13407 17.6107 6.1296 18.4444 5.35321 19.4723M18.6468 19.4723C20.1618 18.1247 21.2303 16.3484 21.7126 14.379C22.1949 12.4095 22.0671 10.34 21.3462 8.44487C20.6253 6.54972 19.3453 4.91848 17.6761 3.76749C16.0068 2.61649 14.0271 2.00012 11.9994 2.00012C9.9718 2.00012 7.99207 2.61649 6.32279 3.76749C4.65351 4.91848 3.37355 6.54972 2.65265 8.44487C1.93176 10.34 1.80399 12.4095 2.28629 14.379C2.7686 16.3484 3.83819 18.1247 5.35321 19.4723M18.6468 19.4723C16.8179 21.1036 14.4507 22.0036 12 22.0001C9.54887 22.0039 7.18239 21.1039 5.35321 19.4723M15.3334 9.49991C15.3334 10.384 14.9822 11.2318 14.357 11.857C13.7319 12.4821 12.8841 12.8333 12 12.8333C11.1159 12.8333 10.2681 12.4821 9.64292 11.857C9.01779 11.2318 8.6666 10.384 8.6666 9.49991C8.6666 8.61584 9.01779 7.76798 9.64292 7.14285C10.2681 6.51772 11.1159 6.16653 12 6.16653C12.8841 6.16653 13.7319 6.51772 14.357 7.14285C14.9822 7.76798 15.3334 8.61584 15.3334 9.49991Z" stroke="#ECF5FF" stroke-width="1.5" stroke-linecap="round" stroke-linejoin="round"/>
</svg>
